# xmcd CD database file
#
# Track frame offsets:
#	150
#	4080
#	7967
#	21452
#	30847
#	34667
#	38475
#	42147
#	45815
#	61467
#	72412
#	76140
#	79887
#	88507
#	91050
#	102822
#	112530
#	117332
#	126275
#	135015
#	144515
#	149290
#	160600
#	165505
#	178477
#	190945
#	198232
#	206585
#	214677
#	224787
#	244095
#	255627
#	267277
#	291352
#	299745
#	306027
#	310877
#	315742
#	320535
#	327512
#	334772
#
# Disc length: 4609 seconds
#
# Revision: 0
# Processed by: cddbd v1.5.1PL0 Copyright (c) Steve Scherf et al.
# Submitted via: CDex 1.51
#
DISCID=4011ff29
DTITLE=Sonoton Athentic Series - SAS 054 - Authentic  Spain
DYEAR=1995
DGENRE=Contentum
TTITLE0=Andalucia - Flamenco - Por ti 1
TTITLE1=Andalucia - Flamenco - Por ti 2
TTITLE2=Andalucia - Flamenco - Quiero volver 1
TTITLE3=Andalucia - Flamenco - Quiero volver 2
TTITLE4=Andalucia - Flamenco - Enmamorados de la Noche 1
TTITLE5=Andalucia - Flamenco - Enmamorados de la Noche 2
TTITLE6=Andalucia - Flamenco - Con mis amigos 1
TTITLE7=Andalucia - Flamenco - Con mis amigos 2
TTITLE8=Andalucia - Flamenco - Amante de la Noche 1
TTITLE9=Andalucia - Flamenco - Amante de la Noche 2
TTITLE10=Andalucia - Flamenco - Quiero volvar 1
TTITLE11=Andalucia - Flamenco - Quiero volvar 2
TTITLE12=Andalucia - Flamenco - Aires camperos
TTITLE13=Andalucia - Flamenco - Amor gitano
TTITLE14=Andalucia - Flamenco - Mi gaditana
TTITLE15=Andalucia - Flamenco - Candela
TTITLE16=Andalucia - Flamenco - Mi velero
TTITLE17=Andalucia - Flamenco - Entre las olas
TTITLE18=Andalucia - Flamenco - Taconeo
TTITLE19=Andalucia - Flamenco - En la arena
TTITLE20=Andalucia - Flamenco - Amanecher
TTITLE21=Andalucia - Flamenco - Lunares
TTITLE22=Andalucia - Flamenco - Lamento minero
TTITLE23=Aragon - Jota de alcaniz
TTITLE24=Aragon - Jota de riglos
TTITLE25=Aragon - Del monte all llano
TTITLE26=Austrias - Son de arriba
TTITLE27=Austrias - Procesional de belmonte
TTITLE28=Austrias - Marcha vaqueira
TTITLE29=Extremadura - Jota del uno
TTITLE30=Canary Islands - Isa del palmero
TTITLE31=Canary Islands - Arrorro
TTITLE32=Canary Islands - Arrorro mi nino
TTITLE33=Period - Spanish antques
TTITLE34=Period - Pavane
TTITLE35=Period - Fantasie
TTITLE36=Period - Courtly dance
TTITLE37=Period - Rujero
TTITLE38=Period - Lagrima preludio
TTITLE39=Period - Adelita
TTITLE40=Period - Anonymous tune
EXTD=YEAR: 1995
EXTT0=
EXTT1=
EXTT2=
EXTT3=
EXTT4=
EXTT5=
EXTT6=
EXTT7=
EXTT8=
EXTT9=
EXTT10=
EXTT11=
EXTT12=
EXTT13=
EXTT14=
EXTT15=
EXTT16=
EXTT17=
EXTT18=
EXTT19=
EXTT20=
EXTT21=
EXTT22=
EXTT23=
EXTT24=
EXTT25=
EXTT26=
EXTT27=
EXTT28=
EXTT29=
EXTT30=
EXTT31=
EXTT32=
EXTT33=
EXTT34=
EXTT35=
EXTT36=
EXTT37=
EXTT38=
EXTT39=
EXTT40=
PLAYORDER=
